<svg width="24" height="24" xmlns="http://www.w3.org/2000/svg">

 <g>
  <title>background</title>
  <rect fill="none" id="canvas_background" height="402" width="582" y="-1" x="-1"/>
 </g>
 <g>
  <title>Layer 1</title>
  <path id="svg_1" d="m21.146,8.576l-7.55,-6.135c-0.925,-0.751 -2.267,-0.751 -3.192,0c0,0 0,0 0,0l-7.549,6.134c-0.265,0.215 -0.416,0.533 -0.416,0.873l0,11.543c0,0.62 0.505,1.13 1.125,1.13l5.062,0c0.62,0 1.125,-0.51 1.125,-1.13l0,-7.306l4.499,0l0,7.306c0,0.62 0.505,1.13 1.125,1.13l5.062,0c0.62,0 1.125,-0.51 1.125,-1.13l0,-11.543c-0.001,-0.34 -0.152,-0.658 -0.416,-0.872zm-0.71,12.421l-5.062,0l0,-7.317c0,-0.62 -0.505,-1.119 -1.125,-1.119l-4.499,0c-0.62,0 -1.125,0.499 -1.125,1.119l0,7.317l-5.061,0l0,-11.549l7.55,-6.134c0.513,-0.418 1.26,-0.417 1.773,0l7.55,6.134l0,11.549l-0.001,0z"/>
 </g>
</svg>