<svg id="SvgjsSvg1011" width="288" height="288" xmlns="http://www.w3.org/2000/svg" version="1.1" xmlns:xlink="http://www.w3.org/1999/xlink" xmlns:svgjs="http://svgjs.com/svgjs"><defs id="SvgjsDefs1012"></defs><g id="SvgjsG1013" transform="matrix(0.9167,0,0,0.9167,11.995199285030367,12.851999432563787)"><svg xmlns="http://www.w3.org/2000/svg" width="288" height="288" viewBox="0 0 1792 1792"><path d="M320 1600v-128q0-26-19-45t-45-19h-128q-26 0-45 19t-19 45v128q0 26 19 45t45 19h128q26 0 45-19t19-45zm0-384v-128q0-26-19-45t-45-19h-128q-26 0-45 19t-19 45v128q0 26 19 45t45 19h128q26 0 45-19t19-45zm0-384v-128q0-26-19-45t-45-19h-128q-26 0-45 19t-19 45v128q0 26 19 45t45 19h128q26 0 45-19t19-45zm1024 768v-512q0-26-19-45t-45-19h-768q-26 0-45 19t-19 45v512q0 26 19 45t45 19h768q26 0 45-19t19-45zm-1024-1152v-128q0-26-19-45t-45-19h-128q-26 0-45 19t-19 45v128q0 26 19 45t45 19h128q26 0 45-19t19-45zm1408 1152v-128q0-26-19-45t-45-19h-128q-26 0-45 19t-19 45v128q0 26 19 45t45 19h128q26 0 45-19t19-45zm-384-768v-512q0-26-19-45t-45-19h-768q-26 0-45 19t-19 45v512q0 26 19 45t45 19h768q26 0 45-19t19-45zm384 384v-128q0-26-19-45t-45-19h-128q-26 0-45 19t-19 45v128q0 26 19 45t45 19h128q26 0 45-19t19-45zm0-384v-128q0-26-19-45t-45-19h-128q-26 0-45 19t-19 45v128q0 26 19 45t45 19h128q26 0 45-19t19-45zm0-384v-128q0-26-19-45t-45-19h-128q-26 0-45 19t-19 45v128q0 26 19 45t45 19h128q26 0 45-19t19-45zm128-160v1344q0 66-47 113t-113 47h-1600q-66 0-113-47t-47-113v-1344q0-66 47-113t113-47h1600q66 0 113 47t47 113z" fill="#db0000" class="color000 svgShape"></path></svg></g></svg>