<svg width="47.99999999999999" height="47.99999999999999" xmlns="http://www.w3.org/2000/svg">

 <g>
  <title>background</title>
  <rect fill="none" id="canvas_background" height="402" width="582" y="-1" x="-1"/>
 </g>
 <g>
  <title>Layer 1</title>
  <path id="svg_1" fill="none" d="m0,0l48,0l0,48l-48,0l0,-48z"/>
  <path fill="#ff0000" id="svg_2" d="m23.99,4c-11.05,0 -19.99,8.95 -19.99,20s8.94,20 19.99,20c11.05,0 20.01,-8.95 20.01,-20s-8.96,-20 -20.01,-20zm8.47,32l-8.46,-5.1l-8.46,5.1l2.24,-9.62l-7.46,-6.47l9.84,-0.84l3.84,-9.07l3.84,9.07l9.84,0.84l-7.46,6.47l2.24,9.62z"/>
 </g>
</svg>