<svg width="16" height="16" xmlns="http://www.w3.org/2000/svg">

 <g>
  <title>background</title>
  <rect fill="none" id="canvas_background" height="402" width="582" y="-1" x="-1"/>
 </g>
 <g>
  <title>Layer 1</title>
  <path fill="#ff0000" stroke="#ff0000" id="svg_1" d="m14,0l-12,0c-1.105,0 -2,0.895 -2,2l0,10c0,1.105 0.895,2 2,2l3.916,0l2.084,2l2,-2l4,0c1.105,0 2,-0.895 2,-2l0,-10c0,-1.105 -0.895,-2 -2,-2zm-2.569,7.439l-0.686,0.712l-2.745,2.849l-2.745,-2.849l-0.686,-0.712c-0.758,-0.787 -0.758,-2.062 0,-2.849s1.987,-0.787 2.745,0l0.686,0.712l0.686,-0.712c0.758,-0.787 1.987,-0.787 2.745,0c0.759,0.787 0.759,2.062 0,2.849z"/>
 </g>
</svg>