<svg width="32" height="32" xmlns="http://www.w3.org/2000/svg">

 <g>
  <title>background</title>
  <rect fill="none" id="canvas_background" height="402" width="582" y="-1" x="-1"/>
 </g>
 <g>
  <title>Layer 1</title>
  <path fill="#ff0000" id="svg_1" d="m29.5,14.1c-0.3,-0.2 -0.7,-0.2 -1,0l-4.6,2.3c-0.2,-1.4 -1.4,-2.4 -2.9,-2.4l-14,0c-1.7,0 -3,1.3 -3,3l0,6c0,1.7 1.3,3 3,3l5.1,0l-3,4.4c-0.3,0.5 -0.2,1.1 0.3,1.4c0.5,0.3 1.1,0.2 1.4,-0.3l3.2,-4.8l3.2,4.8c0.2,0.3 0.5,0.4 0.8,0.4c0.2,0 0.4,-0.1 0.6,-0.2c0.5,-0.3 0.6,-0.9 0.3,-1.4l-3,-4.4l5.1,0c1.5,0 2.7,-1 2.9,-2.4l4.6,2.3c0.2,0.2 0.3,0.2 0.5,0.2c0.2,0 0.4,-0.1 0.5,-0.1c0.3,-0.2 0.5,-0.5 0.5,-0.9l0,-10c0,-0.3 -0.2,-0.7 -0.5,-0.9z"/>
  <path fill="#ff0000" id="svg_2" d="m19,1c-2.1,0 -3.9,1.1 -5,2.7c-1.1,-1.6 -2.9,-2.7 -5,-2.7c-3.3,0 -6,2.7 -6,6s2.7,6 6,6c2.1,0 3.9,-1.1 5,-2.7c1.1,1.6 2.9,2.7 5,2.7c3.3,0 6,-2.7 6,-6s-2.7,-6 -6,-6zm-10,8c-1.1,0 -2,-0.9 -2,-2s0.9,-2 2,-2s2,0.9 2,2s-0.9,2 -2,2zm10,0c-1.1,0 -2,-0.9 -2,-2s0.9,-2 2,-2s2,0.9 2,2s-0.9,2 -2,2z"/>
 </g>
</svg>