<svg width="50" height="50" xmlns="http://www.w3.org/2000/svg">

 <g>
  <title>background</title>
  <rect fill="none" id="canvas_background" height="402" width="582" y="-1" x="-1"/>
 </g>
 <g>
  <title>Layer 1</title>
  <rect stroke="#ff0000" id="svg_1" width="50" height="50" fill="none"/>
  <rect id="svg_2" y="8" x="1" width="48" stroke-width="2" stroke-miterlimit="10" stroke-linecap="round" stroke="#ff0000" height="30" fill="none"/>
  <line id="svg_3" y2="42" y1="42" x2="11" x1="39" stroke-width="2" stroke-miterlimit="10" stroke-linecap="round" stroke="#ff0000" fill="none"/>
  <path fill="#ff0000" stroke="#ff0000" id="svg_4" d="m31.977,23.049l-11.021,-6.363c-0.197,-0.113 -0.441,-0.113 -0.637,0c-0.198,0.113 -0.319,0.323 -0.319,0.55l0,12.729c0,0.228 0.121,0.438 0.318,0.551c0.098,0.057 0.208,0.085 0.318,0.085c0.109,0 0.22,-0.028 0.318,-0.085l11.021,-6.363c0.197,-0.114 0.318,-0.324 0.318,-0.552s-0.119,-0.438 -0.316,-0.552z"/>
 </g>
</svg>