<svg width="48" height="48" xmlns="http://www.w3.org/2000/svg">

 <g>
  <title>background</title>
  <rect fill="none" id="canvas_background" height="402" width="582" y="-1" x="-1"/>
 </g>
 <g>
  <title>Layer 1</title>
  <path fill="#ff0000" stroke="#ff0000" id="svg_1" fill-rule="evenodd" d="m46,37l-44,0c-0.553,0 -1,-0.447 -1,-1l0,-28c0,-0.552 0.447,-1 1,-1l44,0c0.553,0 1,0.448 1,1l0,28c0,0.553 -0.447,1 -1,1zm-1,-28l-42,0l0,26l42,0l0,-26zm-24,7c0.214,0 0.4,0.082 0.563,0.196l7.771,4.872c0.386,0.137 0.666,0.498 0.666,0.932c0,0.325 -0.165,0.601 -0.405,0.783l-7.974,4.981c-0.172,0.14 -0.383,0.236 -0.621,0.236c-0.553,0 -1,-0.447 -1,-1l0,-10c0,-0.552 0.447,-1 1,-1zm-6,23l18,0c0.553,0 1,0.447 1,1s-0.447,1 -1,1l-18,0c-0.553,0 -1,-0.447 -1,-1s0.447,-1 1,-1z" clip-rule="evenodd"/>
 </g>
</svg>